<svg xmlns="http://www.w3.org/2000/svg" class=" icon icon-paperclip" width="16" height="16" viewBox="0 0 16 16"><path id="Vector" d="M4 3.375C4 1.5125 5.5125 0 7.375 0C9.2375 0 10.75 1.5125 10.75 3.375V10.75C10.75 11.9937 9.74375 13 8.5 13C7.25625 13 6.25 11.9937 6.25 10.75V4.75C6.25 4.33437 6.58437 4 7 4C7.41563 4 7.75 4.33437 7.75 4.75V10.75C7.75 11.1656 8.08437 11.5 8.5 11.5C8.91563 11.5 9.25 11.1656 9.25 10.75V3.375C9.25 2.34063 8.40937 1.5 7.375 1.5C6.34063 1.5 5.5 2.34063 5.5 3.375V11.5C5.5 13.1562 6.84375 14.5 8.5 14.5C10.1562 14.5 11.5 13.1562 11.5 11.5V4.75C11.5 4.33437 11.8344 4 12.25 4C12.6656 4 13 4.33437 13 4.75V11.5C13 13.9844 10.9844 16 8.5 16C6.01562 16 4 13.9844 4 11.5V3.375Z"/></svg>